<?xml version="1.0" encoding="iso-8859-1"?>
<!-- Generator: Adobe Illustrator 17.1.0, SVG Export Plug-In . SVG Version: 6.00 Build 0)  -->
<!DOCTYPE svg PUBLIC "-//W3C//DTD SVG 1.1//EN" "http://www.w3.org/Graphics/SVG/1.1/DTD/svg11.dtd">
<svg version="1.1" id="Capa_1" xmlns="http://www.w3.org/2000/svg" xmlns:xlink="http://www.w3.org/1999/xlink" x="0px" y="0px"
	 viewBox="0 0 354.689 354.689" style="enable-background:new 0 0 354.689 354.689;" xml:space="preserve">
<g>
	<path d="M175.592,59.719C175.592,59.719,175.592,59.72,175.592,59.719c-0.001,0.001-0.002,0.002-0.002,0.002
		c-7.297,5.823-11.483,14.512-11.483,23.837c0,9.398,4.237,18.129,11.626,23.951c1.008,0.795,2.208,1.181,3.4,1.181
		c1.627,0,3.238-0.719,4.323-2.096c1.881-2.386,1.471-5.844-0.915-7.724c-4.725-3.724-7.434-9.305-7.434-15.313
		c0-5.958,2.675-11.512,7.34-15.236c0.001,0,0.001-0.001,0.002-0.001c7.299-5.818,11.484-14.507,11.484-23.838
		c0-9.393-4.236-18.122-11.622-23.949c-0.142-0.111-0.297-0.188-0.445-0.283c-4.304-3.712-6.759-9.036-6.759-14.75
		c0-3.037-2.462-5.5-5.5-5.5s-5.5,2.463-5.5,5.5c0,9.398,4.237,18.129,11.626,23.951c0.157,0.124,0.326,0.22,0.491,0.323
		c4.274,3.714,6.71,9.019,6.71,14.708C182.934,50.446,180.258,56,175.592,59.719z"/>
	<path d="M217.197,59.719L217.197,59.719c-0.001,0.001-0.002,0.001-0.003,0.002c-7.3,5.827-11.484,14.517-11.48,23.835
		c-0.004,9.401,4.234,18.133,11.626,23.954c1.009,0.795,2.208,1.18,3.399,1.18c1.628,0,3.239-0.719,4.324-2.097
		c1.88-2.387,1.469-5.845-0.917-7.724c-4.726-3.723-7.435-9.303-7.433-15.313c-0.002-5.957,2.675-11.511,7.344-15.237
		c0.002-0.001,0.002-0.003,0.004-0.004c7.293-5.816,11.475-14.502,11.475-23.832c0-9.392-4.234-18.12-11.618-23.949
		c-0.142-0.111-0.298-0.188-0.446-0.284c-4.305-3.71-6.76-9.034-6.758-14.747c0.001-3.037-2.46-5.501-5.498-5.502
		c-0.001,0-0.001,0-0.002,0c-3.036,0-5.499,2.461-5.5,5.498c-0.004,9.401,4.234,18.133,11.626,23.954
		c0.153,0.121,0.317,0.214,0.479,0.315c4.278,3.715,6.718,9.024,6.718,14.715C224.536,50.447,221.861,56.001,217.197,59.719z"/>
	<path d="M130.637,59.719l-0.001,0.001l-0.001,0.001c-7.298,5.825-11.483,14.514-11.481,23.836
		c-0.002,9.4,4.236,18.131,11.625,23.953c1.009,0.795,2.208,1.18,3.4,1.18c1.627,0,3.239-0.719,4.324-2.096
		c1.88-2.387,1.469-5.845-0.917-7.725c-4.725-3.723-7.434-9.303-7.433-15.313c-0.001-5.957,2.674-11.51,7.339-15.235
		c0.001,0,0.001-0.001,0.002-0.001c7.297-5.817,11.482-14.506,11.482-23.838c0-9.392-4.235-18.121-11.62-23.949
		c-0.141-0.111-0.296-0.188-0.444-0.283c-4.306-3.711-6.761-9.034-6.76-14.749c0.001-3.037-2.461-5.5-5.499-5.501
		c0,0-0.001,0-0.001,0c-3.037,0-5.5,2.462-5.5,5.499c-0.002,9.4,4.235,18.131,11.625,23.953c0.155,0.122,0.322,0.217,0.486,0.32
		c4.276,3.714,6.712,9.021,6.712,14.71C137.976,50.447,135.301,56,130.637,59.719z"/>
	<path d="M289.535,259.719c6.983-6.893,11.315-16.465,11.315-27.029c0-20.953-17.047-38-38-38h-45.103
		c2.095-5.389,3.18-11.141,3.18-17c0-25.916-21.085-47-47.001-47c-7.784,0-15.5,1.946-22.314,5.629
		c-1.536,0.83-2.587,2.341-2.831,4.069c-0.244,1.73,0.347,3.472,1.593,4.694c5.787,5.681,8.974,13.27,8.974,21.368
		c0,12.78-8.003,24.025-19.999,28.239h-47.51c-20.953,0-38,17.047-38,38c0,10.564,4.333,20.136,11.316,27.029
		c-25.412,0.894-45.81,21.845-45.81,47.471c0,26.191,21.309,47.5,47.5,47.5h221c26.191,0,47.5-21.309,47.5-47.5
		C335.345,281.564,314.946,260.612,289.535,259.719z M287.845,343.689h-221c-20.126,0-36.5-16.374-36.5-36.5
		c0-20.126,16.374-36.5,36.5-36.5h24.994c3.038,0,5.5-2.463,5.5-5.5c0-3.037-2.462-5.5-5.5-5.5c-14.888,0-27-12.112-27-27
		c0-14.888,12.112-27,27-27h48.408c0.571,0,1.138-0.089,1.681-0.264c16.999-5.457,28.42-21.12,28.42-38.976
		c0-8.387-2.499-16.374-7.147-23.129c3.458-1.075,7.081-1.632,10.726-1.632c19.851,0,36.001,16.149,36.001,36
		c0,6.944-1.99,13.692-5.755,19.513c-1.094,1.692-1.176,3.847-0.213,5.616c0.963,1.77,2.816,2.871,4.831,2.871h54.06
		c14.888,0,27,12.112,27,27c0,14.888-12.112,27-27,27c-3.037,0-5.5,2.463-5.5,5.5c0,3.037,2.463,5.5,5.5,5.5h24.994
		c20.126,0,36.5,16.374,36.5,36.5C324.345,327.315,307.971,343.689,287.845,343.689z"/>
</g>
<g>
</g>
<g>
</g>
<g>
</g>
<g>
</g>
<g>
</g>
<g>
</g>
<g>
</g>
<g>
</g>
<g>
</g>
<g>
</g>
<g>
</g>
<g>
</g>
<g>
</g>
<g>
</g>
<g>
</g>
</svg>
