<?xml version="1.0" encoding="iso-8859-1"?>
<!-- Generator: Adobe Illustrator 19.0.0, SVG Export Plug-In . SVG Version: 6.00 Build 0)  -->
<svg version="1.1" id="Capa_1" xmlns="http://www.w3.org/2000/svg" xmlns:xlink="http://www.w3.org/1999/xlink" x="0px" y="0px"
	 viewBox="0 0 512 512" style="enable-background:new 0 0 512 512;" xml:space="preserve">
<g>
	<g>
		<path d="M461.339,373.584c-5.522,0-10,4.478-10,10c0,2.476-2.009,4.489-4.478,4.489H279.8c-5.522,0-10,4.478-10,10
			c0,5.522,4.478,10,10,10h167.062c13.497,0,24.478-10.986,24.478-24.489C471.339,378.061,466.861,373.584,461.339,373.584z"/>
	</g>
</g>
<g>
	<g>
		<path d="M256.179,335.874c-1.491-2.22-3.741-3.73-6.361-4.25c-0.649-0.13-1.31-0.2-1.96-0.2c-4.75,0-8.88,3.391-9.8,8.051
			c-1.08,5.409,2.45,10.689,7.85,11.76c0.65,0.13,1.311,0.2,1.961,0.2c4.75,0,8.869-3.391,9.8-8.051
			C258.189,340.764,257.658,338.094,256.179,335.874z"/>
	</g>
</g>
<g>
	<g>
		<path d="M465.646,311.998l-69.988-28.004l10.749-69.981l10.956,4.06c1.125,0.417,2.302,0.623,3.475,0.623
			c1.761,0,3.513-0.465,5.067-1.379c2.59-1.522,4.357-4.128,4.815-7.097l12.708-82.379c0,0,18.661,0.002,18.673,0.002
			c3.657,0,7.182-2.015,8.939-5.504l21.729-43.146c2.483-4.933,0.499-10.945-4.434-13.43c-4.934-2.482-10.945-0.499-13.43,4.434
			l-18.955,37.644H350.291c-5.328,0-9.671,4.171-9.971,9.425l-4.573,19.104c-1.285,5.371,2.026,10.768,7.397,12.054
			c0.782,0.187,1.565,0.276,2.336,0.276c4.521,0,8.619-3.085,9.718-7.674l3.156-13.185h19.52l-8.536,64.123
			c-0.617,4.632,2.056,9.072,6.438,10.696l11.488,4.257l-10.667,69.448l-198.672-79.494c-4.462-1.765-8.999-3.268-13.598-4.522
			l-7.048-50.947h10.906c18.075,0,32.781-14.706,32.781-32.781s-14.706-32.78-32.781-32.78h-42.001L86.324,65.16
			c-2.781-0.745-5.641-1.123-8.5-1.123c-14.801,0-27.815,9.994-31.648,24.302c-2.267,8.458-1.104,17.292,3.274,24.875
			s11.447,13.008,19.905,15.273l26.926,7.215l7.573,54.744C44.655,202.617,0,255.129,0,317.876
			c0,71.73,58.356,130.087,130.087,130.087h311.87c38.622,0,70.043-31.421,70.043-70.043
			C512,348.432,493.38,321.965,465.646,311.998z M398.05,127.841h25.144l-10.37,67.22l-22.607-8.378L398.05,127.841z M74.531,109.17
			c-3.298-0.884-6.054-2.998-7.761-5.955c-1.707-2.956-2.16-6.4-1.276-9.698c1.495-5.581,6.565-9.479,12.33-9.479
			c1.112,0,2.229,0.148,3.323,0.441l41.133,11.022c0.844,0.227,1.714,0.341,2.588,0.341h43.317c7.048,0,12.781,5.733,12.781,12.78
			c0,7.048-5.733,12.781-12.781,12.781H122.88c-0.161-0.01-3.303-0.163-4.341-0.441L74.531,109.17z M143.604,188.49
			c-4.468-0.461-8.976-0.7-13.517-0.7c-2.142,0-4.271,0.055-6.388,0.158l-6.487-46.896c1.52,0.213,5.164,0.352,5.413,0.352h14.466
			L143.604,188.49z M441.957,427.963H199.415c17.588-11.099,32.364-26.33,42.903-44.27c1.351-2.311,1.73-5,1.051-7.58
			c-0.671-2.59-2.301-4.76-4.61-6.11c-1.53-0.899-3.28-1.38-5.061-1.38c-3.529,0-6.84,1.89-8.619,4.94
			c-19.74,33.56-56.141,54.399-94.99,54.399h-0.002C69.385,427.963,20,378.579,20,317.876s49.385-110.087,110.087-110.087
			c13.979,0,27.6,2.584,40.444,7.666l287.857,115.18l0.359,0.136C478.637,337.856,492,356.803,492,377.92
			C492,405.514,469.551,427.963,441.957,427.963z"/>
	</g>
</g>
<g>
	<g>
		<path d="M158.459,382.404h-18.37v-64.53c0-5.51-4.49-10-10-10c-5.521,0-10,4.49-10,10v74.53c0,5.51,4.479,10,10,10h28.37
			c5.51,0,9.989-4.49,9.989-10C168.448,386.883,163.969,382.404,158.459,382.404z"/>
	</g>
</g>
<g>
	<g>
		<path d="M158.198,279.994c-8.26-5.54-17.859-8.47-27.77-8.47h-0.08c-16.7,0-32.22,8.29-41.52,22.16
			c-5.551,8.27-8.48,17.88-8.471,27.81c0,9.57,2.71,18.89,7.851,26.94c1.84,2.89,5,4.619,8.439,4.619c1.9,0,3.75-0.54,5.37-1.569
			c4.64-2.96,6.01-9.15,3.061-13.79c-0.011-0.01-0.011-0.01-0.011-0.021c-3.08-4.83-4.71-10.42-4.71-16.18
			c0-5.95,1.761-11.71,5.08-16.66c5.57-8.32,14.9-13.29,24.95-13.31c5.95,0.01,11.71,1.77,16.67,5.09
			c8.311,5.57,13.28,14.899,13.3,24.95c-0.01,5.76-1.67,11.38-4.8,16.239c-1.45,2.24-1.939,4.921-1.38,7.53
			c0.56,2.61,2.1,4.851,4.35,6.3c1.62,1.04,3.49,1.601,5.42,1.601c3.41,0,6.551-1.71,8.41-4.58c5.24-8.101,8-17.47,8-27.09
			C180.369,304.854,172.089,289.314,158.198,279.994z"/>
	</g>
</g>
<g>
</g>
<g>
</g>
<g>
</g>
<g>
</g>
<g>
</g>
<g>
</g>
<g>
</g>
<g>
</g>
<g>
</g>
<g>
</g>
<g>
</g>
<g>
</g>
<g>
</g>
<g>
</g>
<g>
</g>
</svg>
