<?xml version="1.0" encoding="iso-8859-1"?>
<!-- Generator: Adobe Illustrator 19.0.0, SVG Export Plug-In . SVG Version: 6.00 Build 0)  -->
<svg version="1.1" id="Capa_1" xmlns="http://www.w3.org/2000/svg" xmlns:xlink="http://www.w3.org/1999/xlink" x="0px" y="0px"
	 viewBox="0 0 512 512" style="enable-background:new 0 0 512 512;" xml:space="preserve">
<g>
	<g>
		<path d="M468.929,150.378c-1.95-1.878-4.509-2.908-7.259-2.809c-2.67,0.091-5.15,1.2-6.98,3.15s-2.79,4.49-2.71,7.16
			c0.09,2.62,1.17,5.06,3.051,6.87c1.869,1.819,4.34,2.819,6.939,2.819c0.11,0,0.22,0,0.32-0.01c5.51-0.17,9.859-4.79,9.689-10.31
			C471.889,154.638,470.809,152.198,468.929,150.378z"/>
	</g>
</g>
<g>
	<g>
		<path d="M422,68.833c-38.044,0-72.104,24.063-84.821,59.901l-68.076,171.433H60.65c-4.052,0-7.704,2.445-9.247,6.192l-50.65,123
			c-1.27,3.085-0.918,6.6,0.938,9.372c1.856,2.771,4.973,4.436,8.309,4.436h333.37c43.097-0.003,79.208-30.457,87.963-70.974
			l75.578-183.552c0.074-0.182,0.144-0.365,0.208-0.551c3.238-9.402,4.881-19.246,4.881-29.257
			C512,109.207,471.626,68.833,422,68.833z M24.933,423.167l42.414-103h18.371l-42.415,103H24.933z M343.363,423.167H64.933
			l42.415-103h152.297c-4.046,10.224-6.281,21.354-6.281,33c0,16.542,13.458,30,30,30c6.169,0,11.908-1.874,16.681-5.079
			c8.648,14.973,24.82,25.079,43.319,25.079c27.57,0,50-22.43,50-50s-22.43-50-50-50s-50,22.43-50,50c0,5.514-4.486,10-10,10
			c-5.514,0-10-4.486-10-10c0-38.598,31.402-70,70-70c38.598,0,70,31.402,70,70C413.364,391.765,381.961,423.167,343.363,423.167z
			 M313.363,353.167c0-16.542,13.458-30,30-30s30,13.458,30,30s-13.458,30-30,30S313.363,369.709,313.363,353.167z M488.302,181.308
			l-59.329,144.088c-2.777-8.539-6.811-16.512-11.861-23.723l42.198-102.482c2.101-5.1-0.34-10.96-5.439-13.05
			c-1.221-0.51-2.5-0.76-3.801-0.76c-4.069,0-7.699,2.43-9.25,6.189l-38.548,93.615c-15.796-13.709-36.399-22.018-58.908-22.018
			c-15.256,0-29.634,3.82-42.237,10.547l54.711-137.776c0.049-0.121,0.095-0.244,0.138-0.367
			c9.85-27.956,36.383-46.738,66.025-46.738c38.598,0,70,31.402,70,70C492,166.526,490.756,174.087,488.302,181.308z"/>
	</g>
</g>
<g>
</g>
<g>
</g>
<g>
</g>
<g>
</g>
<g>
</g>
<g>
</g>
<g>
</g>
<g>
</g>
<g>
</g>
<g>
</g>
<g>
</g>
<g>
</g>
<g>
</g>
<g>
</g>
<g>
</g>
</svg>
